<svg xmlns="http://www.w3.org/2000/svg" xmlns:xlink="http://www.w3.org/1999/xlink" width="24" height="24" viewBox="0 0 48 48">
	<defs>
		<clipPath id="clipPath9274859546">
			<path transform="matrix(1 0 0 1 0 0)" d="M0 0L48 0L48 48L0 48L0 0Z" fill-rule="nonzero"/>
		</clipPath>
	</defs>
	<g clip-path="url(#clipPath9274859546)">
		<path transform="matrix(1 0 0 1 1.89903 0)" d="M16.409 0C13.521 0 11.181 3.316 11.181 7.414C11.181 11.516 13.523 14.834 16.411 14.834C19.303 14.834 21.639 11.516 21.639 7.414C21.637 3.316 19.301 0 16.409 0ZM30.459 1.188C27.821 1.16 24.795 5.178 24.501 7.854C24.127 11.344 25.001 14.828 28.859 15.324C32.725 15.824 35.209 11.712 35.703 8.596C36.207 5.486 33.713 1.868 30.979 1.248C30.8933 1.22862 30.8068 1.21391 30.7196 1.20388C30.6323 1.19385 30.5468 1.18856 30.459 1.188ZM5.26497 11.07C5.2129 11.0712 5.16087 11.0732 5.10886 11.0758C5.05685 11.0785 5.00488 11.0819 4.95297 11.086C0.716969 11.466 0.0969692 17.566 0.0969692 17.566C-0.477031 20.386 1.46897 26.416 6.69097 25.294C11.925 24.172 11.215 17.934 11.057 16.57C10.807 14.534 8.47297 11.024 5.26497 11.07ZM38.333 14.576C33.717 14.576 33.099 18.814 33.099 21.808C33.099 24.668 33.341 28.658 39.075 28.532C44.809 28.406 44.181 22.056 44.181 20.556C44.181 19.066 42.941 14.576 38.333 14.576ZM21.805 19.532C18.957 19.56 16.389 21.382 15.159 23.426C12.923 27.162 9.43297 29.526 8.93497 30.152C8.43497 30.77 1.71497 34.384 3.20697 40.992C4.69897 47.594 9.93697 47.466 9.93697 47.466C9.93697 47.466 13.797 47.846 18.279 46.846C22.759 45.856 26.619 47.092 26.619 47.092C26.619 47.092 37.085 50.588 39.949 43.86C42.809 37.132 38.333 33.642 38.333 33.642C38.333 33.642 32.353 29.03 28.861 24.046C26.717 20.716 24.165 19.51 21.805 19.532ZM17.337 27.212L20.421 27.26L20.421 43.654L13.617 43.654C10.677 43.072 9.50697 41.07 9.35697 40.73C9.21297 40.384 8.38097 38.778 8.82097 36.044C10.091 31.946 13.715 31.652 13.715 31.652L17.335 31.652L17.337 27.212ZM25.265 31.992L25.265 39.754C25.457 40.58 26.489 40.73 26.489 40.73L29.717 40.73L29.717 32.044L33.095 32.044L33.095 43.608L25.265 43.608C22.231 42.828 22.085 40.678 22.085 40.678L22.085 32.044L25.265 31.992ZM14.349 34.286C13.029 34.68 12.393 35.702 12.249 36.142C12.097 36.582 11.755 37.702 12.049 38.68C12.637 40.87 14.545 40.968 14.545 40.968L17.285 40.968L17.285 34.288L14.349 34.286Z" fill-rule="nonzero" fill="rgb(76, 123, 255)"/>
	</g>
</svg>
