<svg xmlns="http://www.w3.org/2000/svg" xmlns:xlink="http://www.w3.org/1999/xlink" width="148" height="144" viewBox="0 0 48 44">
	<defs>
		<clipPath id="clipPath3806078199">
			<path transform="matrix(1 0 0 1 0 0)" d="M0 0L48 0L48 44L0 44L0 0Z" fill-rule="nonzero"/>
		</clipPath>
	</defs>
	<g clip-path="url(#clipPath3806078199)">
		<path transform="matrix(1 0 0 1 2.6875 0.6875)" d="M14.257 33.4641C14.257 33.6359 14.0594 33.7734 13.8102 33.7734C13.5266 33.7992 13.3289 33.6617 13.3289 33.4641C13.3289 33.2922 13.5266 33.1547 13.7758 33.1547C14.0336 33.1289 14.257 33.2664 14.257 33.4641ZM11.5844 33.0773C11.5242 33.2492 11.6961 33.4469 11.9539 33.4984C12.1773 33.5844 12.4352 33.4984 12.4867 33.3266C12.5383 33.1547 12.375 32.957 12.1172 32.8797C11.8937 32.8195 11.6445 32.9055 11.5844 33.0773ZM15.3828 32.9312C15.1336 32.9914 14.9617 33.1547 14.9875 33.3523C15.0133 33.5242 15.2367 33.6359 15.4945 33.5758C15.7437 33.5156 15.9156 33.3523 15.8898 33.1805C15.8641 33.0172 15.632 32.9055 15.3828 32.9312ZM21.0375 0C9.11797 0 0 9.04922 0 20.9688C0 30.4992 5.99844 38.6547 14.5664 41.525C15.6664 41.7227 16.0531 41.0438 16.0531 40.4852C16.0531 39.9523 16.0273 37.0133 16.0273 35.2086C16.0273 35.2086 10.0117 36.4977 8.74844 32.6477C8.74844 32.6477 7.76875 30.1469 6.35938 29.5023C6.35938 29.5023 4.39141 28.1531 6.49687 28.1789C6.49687 28.1789 8.63672 28.3508 9.81406 30.3961C11.6961 33.7133 14.85 32.7594 16.0789 32.1922C16.2766 30.8172 16.8352 29.8633 17.4539 29.2961C12.65 28.7633 7.80313 28.0672 7.80313 19.8C7.80313 17.4367 8.45625 16.2508 9.83125 14.7383C9.60781 14.1797 8.87734 11.8766 10.0547 8.90312C11.8508 8.34453 15.9844 11.2234 15.9844 11.2234C17.7031 10.7422 19.5508 10.493 21.3813 10.493C23.2117 10.493 25.0594 10.7422 26.7781 11.2234C26.7781 11.2234 30.9117 8.33594 32.7078 8.90313C33.8852 11.8852 33.1547 14.1797 32.9313 14.7383C34.3063 16.2594 35.1484 17.4453 35.1484 19.8C35.1484 28.093 30.0867 28.7547 25.2828 29.2961C26.0734 29.975 26.7438 31.2641 26.7438 33.2836C26.7438 36.1797 26.718 39.7633 26.718 40.468C26.718 41.0266 27.1133 41.7055 28.2047 41.5078C36.7984 38.6547 42.625 30.4992 42.625 20.9688C42.625 9.04922 32.957 0 21.0375 0ZM8.35312 29.6398C8.24141 29.7258 8.26719 29.9234 8.41328 30.0867C8.55078 30.2242 8.74844 30.2844 8.86016 30.1727C8.97187 30.0867 8.94609 29.8891 8.8 29.7258C8.6625 29.5883 8.46484 29.5281 8.35312 29.6398ZM7.425 28.9437C7.36484 29.0555 7.45078 29.193 7.62266 29.2789C7.76016 29.3648 7.93203 29.3391 7.99219 29.2187C8.05234 29.107 7.96641 28.9695 7.79453 28.8836C7.62266 28.832 7.48516 28.8578 7.425 28.9437ZM10.2094 32.0031C10.0719 32.1148 10.1234 32.3727 10.3211 32.5359C10.5188 32.7336 10.768 32.7594 10.8797 32.6219C10.9914 32.5102 10.9398 32.2523 10.768 32.0891C10.5789 31.8914 10.3211 31.8656 10.2094 32.0031ZM9.22969 30.7398C9.09219 30.8258 9.09219 31.0492 9.22969 31.2469C9.36719 31.4445 9.59922 31.5305 9.71094 31.4445C9.84844 31.3328 9.84844 31.1094 9.71094 30.9117C9.59062 30.7141 9.36719 30.6281 9.22969 30.7398Z" fill-rule="nonzero" fill="rgb(74, 123, 255)"/>
	</g>
</svg>
