<svg xmlns="http://www.w3.org/2000/svg" xmlns:xlink="http://www.w3.org/1999/xlink" width="48" height="48" viewBox="0 0 48 48">
	<defs>
		<clipPath id="clipPath7953927625">
			<path transform="matrix(1 0 0 1 0 0)" d="M0 0L48 0L48 48L0 48L0 0Z" fill-rule="nonzero"/>
		</clipPath>
	</defs>
	<g clip-path="url(#clipPath7953927625)">
		<path transform="matrix(1 0 0 1 15 37.5)" d="M1.5 -1.5Q2.10935 -1.5 2.6682 -1.26363Q3.20684 -1.0358 3.62132 -0.62132Q4.0358 -0.206839 4.26363 0.331804Q4.5 0.890648 4.5 1.5Q4.5 2.10935 4.26363 2.6682Q4.0358 3.20684 3.62132 3.62132Q3.20684 4.0358 2.6682 4.26363Q2.10935 4.5 1.5 4.5Q0.890648 4.5 0.331804 4.26363Q-0.206839 4.0358 -0.62132 3.62132Q-1.0358 3.20684 -1.26363 2.6682Q-1.5 2.10935 -1.5 1.5Q-1.5 0.890648 -1.26363 0.331804Q-1.0358 -0.206838 -0.62132 -0.62132Q-0.206837 -1.0358 0.331804 -1.26363Q0.890647 -1.5 1.5 -1.5L1.5 -1.5ZM1.5 1.5Q1.5 1.5 1.5 1.5Q1.5 1.5 1.5 1.5L1.5 1.5L1.5 1.5L1.5 1.5Z" fill-rule="nonzero" fill="rgb(76, 123, 255)"/>
		<path transform="matrix(1 0 0 1 36 37.5)" d="M1.5 -1.5Q2.10935 -1.5 2.6682 -1.26363Q3.20684 -1.0358 3.62132 -0.62132Q4.0358 -0.206839 4.26363 0.331804Q4.5 0.890648 4.5 1.5Q4.5 2.10935 4.26363 2.6682Q4.0358 3.20684 3.62132 3.62132Q3.20684 4.0358 2.6682 4.26363Q2.10935 4.5 1.5 4.5Q0.890648 4.5 0.331804 4.26363Q-0.206839 4.0358 -0.62132 3.62132Q-1.0358 3.20684 -1.26363 2.6682Q-1.5 2.10935 -1.5 1.5Q-1.5 0.890648 -1.26363 0.331804Q-1.0358 -0.206838 -0.62132 -0.62132Q-0.206837 -1.0358 0.331804 -1.26363Q0.890647 -1.5 1.5 -1.5L1.5 -1.5ZM1.5 1.5Q1.5 1.5 1.5 1.5Q1.5 1.5 1.5 1.5L1.5 1.5L1.5 1.5L1.5 1.5Z" fill-rule="nonzero" fill="rgb(76, 123, 255)"/>
		<path transform="matrix(1 0 0 1 4.5 7.5)" d="M-1.5 0C-1.5 0.82842 -0.82842 1.5 0 1.5L4.74153 1.5L9.02283 25.7607Q9.04563 25.8899 9.09052 26.0132Q9.13542 26.1365 9.20104 26.2501Q9.26666 26.3638 9.35102 26.4643Q9.43537 26.5648 9.5359 26.6491Q9.63643 26.7335 9.75007 26.7991Q9.86371 26.8647 9.98702 26.9096Q10.1103 26.9544 10.2396 26.9772Q10.3688 27 10.5 27L34.5 27C35.3284 27 36 26.3284 36 25.5C36 24.6716 35.3284 24 34.5 24L11.7585 24L7.47718 -0.260678Q7.45437 -0.389901 7.40948 -0.513202Q7.36458 -0.636503 7.29896 -0.750136Q7.23334 -0.863769 7.14898 -0.964281Q7.06463 -1.06479 6.9641 -1.14913Q6.86357 -1.23347 6.74993 -1.29908Q6.63629 -1.36468 6.51298 -1.40956Q6.38967 -1.45443 6.26045 -1.47722Q6.13122 -1.5 6 -1.5L0 -1.5C-0.82842 -1.5 -1.5 -0.82842 -1.5 0Z" fill-rule="evenodd" fill="rgb(76, 123, 255)"/>
		<path transform="matrix(1 0 0 1 12 12)" d="M25.7707 13.5L3 13.5C2.17158 13.5 1.5 14.1716 1.5 15C1.5 15.8284 2.17158 16.5 3 16.5L26.385 16.5Q27.1887 16.5006 27.8113 15.9906Q28.4338 15.4807 28.5918 14.6916L31.2918 1.19136Q31.3928 0.686782 31.2722 0.203913Q31.1516 -0.278948 30.8251 -0.67696Q30.4987 -1.07497 30.0487 -1.28766Q29.5987 -1.50036 29.084 -1.5L0 -1.5C-0.82842 -1.5 -1.5 -0.82842 -1.5 0C-1.5 0.82842 -0.82842 1.5 0 1.5L28.1707 1.5L25.7707 13.5Z" fill-rule="evenodd" fill="rgb(76, 123, 255)"/>
	</g>
</svg>
