<svg xmlns="http://www.w3.org/2000/svg" xmlns:xlink="http://www.w3.org/1999/xlink" width="48" height="48" viewBox="0 0 48 48">
	<defs>
		<clipPath id="clipPath0482892169">
			<path transform="matrix(1 0 0 1 0 0)" d="M0 0L48 0L48 48L0 48L0 0Z" fill-rule="nonzero"/>
		</clipPath>
	</defs>
	<g clip-path="url(#clipPath0482892169)">
		<path transform="matrix(1 0 0 1 0 2.64)" d="M35.626 6.666L37.334 6.666C40.354 6.774 42.872 7.822 44.88 9.814C46.888 11.804 47.928 14.312 48 17.334L48 32.054C47.928 35.074 46.888 37.592 44.88 39.6C42.872 41.608 40.356 42.648 37.334 42.72L10.666 42.72C7.646 42.648 5.128 41.608 3.12 39.6C1.112 37.592 0.072 35.076 0 32.054L0 17.334C0.072 14.312 1.112 11.804 3.12 9.814C5.128 7.822 7.644 6.774 10.666 6.666L12.214 6.666L9.866 4.426C9.62197 4.18842 9.43512 3.91215 9.30546 3.59721C9.1758 3.28227 9.11398 2.95453 9.12 2.614C9.12 1.902 9.368 1.298 9.866 0.8L9.92 0.746C10.454 0.248 11.066 0 11.76 0C12.454 0 13.066 0.248 13.6 0.746L19.306 6.24C19.448 6.382 19.574 6.524 19.68 6.666L28.214 6.666C28.2556 6.58691 28.3032 6.51163 28.3569 6.44017C28.4106 6.36872 28.4696 6.30199 28.534 6.24L34.24 0.746001C34.774 0.248002 35.386 1.43051e-06 36.08 1.43051e-06C36.774 1.43051e-06 37.404 0.302001 37.938 0.800001C38.472 1.298 38.72 1.902 38.72 2.614C38.72 3.324 38.472 3.928 37.974 4.426L35.626 6.666ZM10.666 11.84C9.174 11.876 7.92 12.392 6.906 13.386C5.894 14.382 5.368 15.646 5.334 17.174L5.334 32.214C5.368 33.742 5.894 35.004 6.906 36C7.92 36.996 9.174 37.512 10.666 37.546L37.334 37.546C38.826 37.512 40.08 36.996 41.094 36C42.106 35.004 42.632 33.742 42.666 32.214L42.666 17.174C42.632 15.644 42.106 14.382 41.094 13.386C40.08 12.392 38.826 11.876 37.334 11.84L10.666 11.84ZM16 19.574C16.746 19.574 17.368 19.822 17.866 20.32C18.366 20.818 18.632 21.458 18.666 22.24L18.666 24.586C18.632 25.368 18.366 26.008 17.866 26.506C17.368 27.006 16.746 27.254 16 27.254C15.254 27.254 14.632 27.004 14.134 26.506C13.634 26.008 13.368 25.368 13.334 24.586L13.334 22.24C13.334 21.494 13.592 20.862 14.106 20.346C14.622 19.832 15.254 19.574 16 19.574ZM32 19.574C32.746 19.574 33.368 19.822 33.866 20.32C34.366 20.818 34.632 21.458 34.666 22.24L34.666 24.586C34.632 25.368 34.366 26.008 33.866 26.506C33.368 27.006 32.746 27.254 32 27.254C31.254 27.254 30.632 27.004 30.134 26.506C29.634 26.008 29.368 25.368 29.334 24.586L29.334 22.24C29.368 21.458 29.634 20.818 30.134 20.32C30.632 19.822 31.254 19.574 32 19.574Z" fill-rule="nonzero" fill="rgb(76, 123, 255)"/>
	</g>
</svg>
