<svg xmlns="http://www.w3.org/2000/svg" xmlns:xlink="http://www.w3.org/1999/xlink" width="24" height="24" viewBox="0 0 48 44">
	<defs>
		<clipPath id="clipPath4457173734">
			<path transform="matrix(1 0 0 1 0 0)" d="M0 0L48 0L48 44L0 44L0 0Z" fill-rule="nonzero"/>
		</clipPath>
	</defs>
	<g clip-path="url(#clipPath4457173734)">
		<path transform="matrix(1 0 0 1 3.03125 0.6875)" d="M41.9375 21.8109C41.9375 33.9711 33.6102 42.625 21.3125 42.625C9.52188 42.625 0 33.1031 0 21.3125C0 9.52187 9.52188 0 21.3125 0C27.0531 0 31.8828 2.10547 35.6039 5.57734L29.8031 11.1547C22.2148 3.83281 8.10391 9.33281 8.10391 21.3125C8.10391 28.7461 14.0422 34.7703 21.3125 34.7703C29.7516 34.7703 32.9141 28.7203 33.4125 25.5836L21.3125 25.5836L21.3125 18.2531L41.6023 18.2531C41.8 19.3445 41.9375 20.393 41.9375 21.8109Z" fill-rule="nonzero" fill="rgb(74, 123, 255)"/>
	</g>
</svg>
